HIERARCHY
ROOT Hips
{
	OFFSET 0.000000 100.481300 0.000000
	CHANNELS 6 Xposition Yposition Zposition Xrotation Yrotation Zrotation
	JOINT Spine
	{
		OFFSET -0.279200 12.230698 -2.892100
		CHANNELS 3 Xrotation Yrotation Zrotation
		JOINT Spine1
		{
			OFFSET -0.325700 14.269203 -3.374200
			CHANNELS 3 Xrotation Yrotation Zrotation
			JOINT Spine2
			{
				OFFSET -0.372300 16.307602 -0.352600
				CHANNELS 3 Xrotation Yrotation Zrotation
				JOINT Neck
				{
					OFFSET -0.418800 17.814194 8.416900
					CHANNELS 3 Xrotation Yrotation Zrotation
					JOINT Head
					{
						OFFSET 0.000000 7.031097 3.806800
						CHANNELS 3 Xrotation Yrotation Zrotation
						JOINT HeadTop_End
						{
							OFFSET 0.000000 24.646606 12.978600
							CHANNELS 3 Xrotation Yrotation Zrotation
							End Site
							{
								OFFSET 0.000000 27.854965 0.000000
							}
						}
					}
				}
				JOINT LeftShoulder
				{
					OFFSET 16.952999 14.495407 -7.737500
					CHANNELS 3 Xrotation Yrotation Zrotation
					JOINT LeftArm
					{
						OFFSET 9.308998 -2.777710 0.208600
						CHANNELS 3 Xrotation Yrotation Zrotation
						JOINT LeftForeArm
						{
							OFFSET 29.972298 0.000000 0.000000
							CHANNELS 3 Xrotation Yrotation Zrotation
							JOINT LeftHand
							{
								OFFSET 26.026505 0.000000 0.000000
								CHANNELS 3 Xrotation Yrotation Zrotation
								JOINT LeftHandThumb1
								{
									OFFSET 12.240501 -7.147949 9.207150
									CHANNELS 3 Xrotation Yrotation Zrotation
									JOINT LeftHandThumb2
									{
										OFFSET 4.138618 -2.389435 2.389433
										CHANNELS 3 Xrotation Yrotation Zrotation
										JOINT LeftHandThumb3
										{
											OFFSET 2.726913 -1.574387 1.574386
											CHANNELS 3 Xrotation Yrotation Zrotation
											JOINT LeftHandThumb4
											{
												OFFSET 3.941010 -2.275345 2.275342
												CHANNELS 3 Xrotation Yrotation Zrotation
												End Site
												{
													OFFSET -0.005798 5.087799 0.009903
												}
											}
										}
									}
								}
								JOINT LeftHandIndex1
								{
									OFFSET 24.424698 -1.985611 5.953459
									CHANNELS 3 Xrotation Yrotation Zrotation
									JOINT LeftHandIndex2
									{
										OFFSET 6.426697 0.000000 0.000000
										CHANNELS 3 Xrotation Yrotation Zrotation
										JOINT LeftHandIndex3
										{
											OFFSET 5.337898 0.000000 0.000000
											CHANNELS 3 Xrotation Yrotation Zrotation
											JOINT LeftHandIndex4
											{
												OFFSET 4.409401 0.000000 0.000000
												CHANNELS 3 Xrotation Yrotation Zrotation
												End Site
												{
													OFFSET 0.000000 4.409363 0.014373
												}
											}
										}
									}
								}
								JOINT LeftHandMiddle1
								{
									OFFSET 23.810104 0.000000 0.000000
									CHANNELS 3 Xrotation Yrotation Zrotation
									JOINT LeftHandMiddle2
									{
										OFFSET 7.176498 0.000000 0.000000
										CHANNELS 3 Xrotation Yrotation Zrotation
										JOINT LeftHandMiddle3
										{
											OFFSET 6.774902 0.000000 0.000000
											CHANNELS 3 Xrotation Yrotation Zrotation
											JOINT LeftHandMiddle4
											{
												OFFSET 5.403328 0.000000 0.000000
												CHANNELS 3 Xrotation Yrotation Zrotation
												End Site
												{
													OFFSET -0.027702 5.403244 0.017414
												}
											}
										}
									}
								}
								JOINT LeftHandRing1
								{
									OFFSET 22.908401 -0.839279 -6.020567
									CHANNELS 3 Xrotation Yrotation Zrotation
									JOINT LeftHandRing2
									{
										OFFSET 6.337502 0.000000 0.000000
										CHANNELS 3 Xrotation Yrotation Zrotation
										JOINT LeftHandRing3
										{
											OFFSET 5.779297 0.000000 0.000000
											CHANNELS 3 Xrotation Yrotation Zrotation
											JOINT LeftHandRing4
											{
												OFFSET 4.965698 0.000000 0.000000
												CHANNELS 3 Xrotation Yrotation Zrotation
												End Site
												{
													OFFSET 0.000000 4.965668 0.016186
												}
											}
										}
									}
								}
								JOINT LeftHandPinky1
								{
									OFFSET 20.037003 -1.530319 -10.950146
									CHANNELS 3 Xrotation Yrotation Zrotation
									JOINT LeftHandPinky2
									{
										OFFSET 5.254700 0.000000 0.000000
										CHANNELS 3 Xrotation Yrotation Zrotation
										JOINT LeftHandPinky3
										{
											OFFSET 4.810204 0.000000 0.000000
											CHANNELS 3 Xrotation Yrotation Zrotation
											JOINT LeftHandPinky4
											{
												OFFSET 3.647202 0.000000 0.000000
												CHANNELS 3 Xrotation Yrotation Zrotation
												End Site
												{
													OFFSET 0.000000 3.647186 0.011889
												}
											}
										}
									}
								}
							}
						}
					}
				}
				JOINT RightShoulder
				{
					OFFSET -15.141001 14.495407 -7.737500
					CHANNELS 3 Xrotation Yrotation Zrotation
					JOINT RightArm
					{
						OFFSET -9.308998 -2.777710 0.208500
						CHANNELS 3 Xrotation Yrotation Zrotation
						JOINT RightForeArm
						{
							OFFSET -29.972300 0.000000 0.000000
							CHANNELS 3 Xrotation Yrotation Zrotation
							JOINT RightHand
							{
								OFFSET -26.026505 0.000000 0.000000
								CHANNELS 3 Xrotation Yrotation Zrotation
								JOINT RightHandThumb1
								{
									OFFSET -12.240601 -7.148026 9.207092
									CHANNELS 3 Xrotation Yrotation Zrotation
									JOINT RightHandThumb2
									{
										OFFSET -4.138618 -2.389435 2.389433
										CHANNELS 3 Xrotation Yrotation Zrotation
										JOINT RightHandThumb3
										{
											OFFSET -2.726974 -1.574417 1.574421
											CHANNELS 3 Xrotation Yrotation Zrotation
											JOINT RightHandThumb4
											{
												OFFSET -3.941010 -2.275345 2.275343
												CHANNELS 3 Xrotation Yrotation Zrotation
												End Site
												{
													OFFSET 0.005814 5.087799 0.009927
												}
											}
										}
									}
								}
								JOINT RightHandIndex1
								{
									OFFSET -24.424698 -1.985657 5.953444
									CHANNELS 3 Xrotation Yrotation Zrotation
									JOINT RightHandIndex2
									{
										OFFSET -6.426697 0.000000 0.000000
										CHANNELS 3 Xrotation Yrotation Zrotation
										JOINT RightHandIndex3
										{
											OFFSET -5.337898 0.000000 0.000000
											CHANNELS 3 Xrotation Yrotation Zrotation
											JOINT RightHandIndex4
											{
												OFFSET -4.409401 0.000000 0.000000
												CHANNELS 3 Xrotation Yrotation Zrotation
												End Site
												{
													OFFSET 0.000000 4.409363 0.014408
												}
											}
										}
									}
								}
								JOINT RightHandMiddle1
								{
									OFFSET -23.810097 0.000000 0.000000
									CHANNELS 3 Xrotation Yrotation Zrotation
									JOINT RightHandMiddle2
									{
										OFFSET -7.176498 0.000000 0.000000
										CHANNELS 3 Xrotation Yrotation Zrotation
										JOINT RightHandMiddle3
										{
											OFFSET -6.774902 0.000000 0.000000
											CHANNELS 3 Xrotation Yrotation Zrotation
											JOINT RightHandMiddle4
											{
												OFFSET -5.403328 0.000000 0.000000
												CHANNELS 3 Xrotation Yrotation Zrotation
												End Site
												{
													OFFSET 0.027702 5.403244 0.017457
												}
											}
										}
									}
								}
								JOINT RightHandRing1
								{
									OFFSET -22.908302 -0.839325 -6.020576
									CHANNELS 3 Xrotation Yrotation Zrotation
									JOINT RightHandRing2
									{
										OFFSET -6.337502 0.000000 0.000000
										CHANNELS 3 Xrotation Yrotation Zrotation
										JOINT RightHandRing3
										{
											OFFSET -5.779297 0.000000 0.000000
											CHANNELS 3 Xrotation Yrotation Zrotation
											JOINT RightHandRing4
											{
												OFFSET -4.965698 0.000000 0.000000
												CHANNELS 3 Xrotation Yrotation Zrotation
												End Site
												{
													OFFSET 0.000000 4.965668 0.016226
												}
											}
										}
									}
								}
								JOINT RightHandPinky1
								{
									OFFSET -20.037003 -1.530334 -10.950259
									CHANNELS 3 Xrotation Yrotation Zrotation
									JOINT RightHandPinky2
									{
										OFFSET -5.254700 0.000000 0.000000
										CHANNELS 3 Xrotation Yrotation Zrotation
										JOINT RightHandPinky3
										{
											OFFSET -4.810204 0.000000 0.000000
											CHANNELS 3 Xrotation Yrotation Zrotation
											JOINT RightHandPinky4
											{
												OFFSET -3.647202 0.000000 0.000000
												CHANNELS 3 Xrotation Yrotation Zrotation
												End Site
												{
													OFFSET 0.000000 3.647186 0.011917
												}
											}
										}
									}
								}
							}
						}
					}
				}
			}
		}
	}
	JOINT LeftUpLeg
	{
		OFFSET 15.427100 -6.655098 0.678600
		CHANNELS 3 Xrotation Yrotation Zrotation
		JOINT LeftLeg
		{
			OFFSET 4.081073 -39.591068 13.024000
			CHANNELS 3 Xrotation Yrotation Zrotation
			JOINT LeftFoot
			{
				OFFSET -4.081074 -37.707932 -15.979700
				CHANNELS 3 Xrotation Yrotation Zrotation
				JOINT LeftToeBase
				{
					OFFSET 5.346399 -15.068900 20.645000
					CHANNELS 3 Xrotation Yrotation Zrotation
					JOINT LeftToe_End
					{
						OFFSET 2.754700 0.931300 11.300900
						CHANNELS 3 Xrotation Yrotation Zrotation
						End Site
						{
							OFFSET 0.000000 11.669021 0.000000
						}
					}
				}
			}
		}
	}
	JOINT RightUpLeg
	{
		OFFSET -15.569500 -6.655098 0.678600
		CHANNELS 3 Xrotation Yrotation Zrotation
		JOINT RightLeg
		{
			OFFSET -4.081825 -39.591045 13.023800
			CHANNELS 3 Xrotation Yrotation Zrotation
			JOINT RightFoot
			{
				OFFSET 4.081824 -37.707954 -15.979600
				CHANNELS 3 Xrotation Yrotation Zrotation
				JOINT RightToeBase
				{
					OFFSET -5.346400 -15.068900 20.645000
					CHANNELS 3 Xrotation Yrotation Zrotation
					JOINT RightToe_End
					{
						OFFSET -2.754700 0.931300 11.300900
						CHANNELS 3 Xrotation Yrotation Zrotation
						End Site
						{
							OFFSET 0.000000 11.669021 0.000000
						}
					}
				}
			}
		}
	}
}
MOTION
Frames: 4
Frame Time: 0.033333
-1.773871 15.778763 -9.805351 82.527776 -4.975074 3.778209 5.824259 -1.461016 -0.772153 -4.505660 -5.981536 1.125162 -3.978355 -6.220832 0.289843 -32.792575 -1.702231 16.058675 -6.181619 25.655048 -5.100566 -0.000001 0.000000 0.000000 -32.464173 -38.489427 29.683654 -79.250808 -12.366260 -42.888698 -0.000001 -47.567029 0.000004 -117.385967 17.225737 23.833185 4.709228 9.560376 3.111990 19.473184 -1.474900 7.636910 -4.536184 -9.613107 1.492977 -0.000000 0.000001 -0.000001 -0.212816 3.933713 -36.747131 2.942133 5.078915 -60.144604 0.513678 2.400826 -24.150504 -0.000003 0.000000 -0.000002 0.405919 5.507066 -52.453165 3.387142 5.308613 -65.057470 0.282011 1.797456 -17.832391 -0.000001 0.000001 -0.000002 -0.074384 5.736781 -61.061434 4.055038 5.569519 -72.094914 0.582667 2.548966 -25.748001 -0.000001 -0.000004 -0.000003 -6.565580 4.545130 -72.425236 3.299630 5.267217 -64.107807 0.175342 1.424008 -14.038883 0.000001 0.000001 -0.000002 -20.876762 19.499220 15.427031 -54.224640 48.923907 38.187748 0.000039 110.391184 -0.000058 -42.846282 -8.113263 -56.437027 8.377145 -4.904139 11.022008 21.620211 -18.183881 -18.379225 -0.702891 -49.821193 -32.535125 0.000000 0.000002 -0.000001 -0.920034 1.683582 12.434982 0.748121 -2.533466 32.898289 0.615650 -2.316053 29.767829 0.000000 0.000000 -0.000001 3.413066 -7.186253 51.650259 6.296812 -4.359603 110.634653 0.248733 -1.503072 18.790262 -0.000001 0.000000 0.000000 -3.349034 -2.600422 57.010564 5.440856 -4.590889 99.698174 1.689407 -3.590697 50.382238 -0.000000 0.000001 -0.000003 -3.996424 -3.303936 64.593864 4.058842 -4.618658 82.610523 2.315539 -4.026788 59.787214 -0.000000 0.000001 -0.000001 -10.201175 33.779496 19.503665 25.818359 -0.036581 -5.875489 -13.860786 16.911193 19.552584 4.604843 9.726043 35.515546 0.000001 -0.000000 -0.000002 -39.166203 -40.639509 -50.609670 29.178937 -10.772020 -4.684120 -7.099812 2.917561 23.130502 -0.029891 -0.511881 5.948980 -0.000000 -0.000000 -0.000001 
-2.330605 17.308723 -11.790878 81.574390 -0.806270 3.718863 5.585992 -2.883857 0.093274 -3.769935 -5.653099 1.453089 -3.272538 -5.864855 0.689487 -32.923192 -1.430384 15.031460 -3.440065 26.208841 -2.882504 0.000002 0.000001 0.000000 -30.253886 -41.174173 24.970007 -80.736114 -6.884738 -37.350521 0.000022 -59.999940 0.000012 -112.280209 17.696586 33.362414 2.960467 8.740459 4.377279 20.290335 -1.713283 8.024062 -4.940211 -9.608197 3.030117 0.000000 0.000000 0.000001 -0.374510 3.671413 -36.174021 3.174314 5.204788 -62.734837 0.599930 2.584415 -26.133513 0.000001 -0.000001 0.000000 0.373469 5.227788 -47.652396 3.419419 5.323440 -65.405652 0.276510 1.780269 -17.656189 -0.000000 0.000000 -0.000001 0.195834 5.849507 -60.509547 3.953546 5.535847 -71.046016 0.534415 2.446514 -24.641005 -0.000000 -0.000002 -0.000001 -4.965575 4.799560 -70.967257 3.444771 5.334921 -65.678621 0.259024 1.724380 -17.084366 -0.000002 -0.000001 0.000003 -18.988911 19.057940 15.122696 -57.467593 51.156478 45.529454 -0.000047 109.439834 0.000042 -40.043312 -7.771213 -50.874271 6.626943 -5.905516 12.959224 15.202106 -17.860899 -20.529342 -4.271715 -45.342703 -38.016546 0.000001 -0.000001 0.000001 -0.859032 1.672169 11.778911 1.043937 -2.940261 39.087527 0.730334 -2.505791 32.493758 0.000000 -0.000000 -0.000000 3.571257 -7.091204 56.907456 6.279188 -4.366169 110.403178 0.248732 -1.503071 18.790262 -0.000000 -0.000000 0.000000 -3.008379 -3.278896 60.586770 5.380487 -4.600789 98.944320 1.571063 -3.489552 48.465762 -0.000000 -0.000000 0.000001 -3.295770 -4.103657 68.216036 3.809778 -4.579607 79.504918 2.214748 -3.966534 58.341181 -0.000000 -0.000001 0.000000 -16.263667 31.000671 22.795336 35.969880 -2.925563 -7.365668 -17.275859 10.913866 17.836844 6.382677 10.600682 38.473329 -0.000000 0.000000 0.000002 -32.644828 -36.367936 -45.686627 33.051453 -8.059522 -5.509660 -6.362829 10.798929 17.024412 14.367947 -8.456435 -28.628552 0.000001 -0.000002 0.000000 
-3.432283 18.931541 -13.588310 79.972370 3.623358 4.097757 6.865776 -4.096844 0.388628 -3.055770 -5.248356 1.940103 -2.589660 -5.424568 1.261525 -33.092342 -0.874315 13.575588 -1.936920 26.345373 -0.559942 0.000000 0.000001 0.000001 -26.913722 -43.577949 21.739765 -86.396231 -4.343009 -32.929015 0.000052 -67.791943 0.000073 -107.683390 20.187910 40.375086 1.344215 7.673666 5.486007 21.096593 -2.012994 8.340639 -5.258613 -9.601514 4.246105 -0.000000 -0.000001 -0.000000 -0.503745 3.421480 -35.329379 3.249603 5.242726 -63.561699 0.609082 2.602979 -26.335749 0.000002 0.000000 0.000001 0.467379 5.141555 -43.956502 3.194362 5.215021 -62.955588 0.224574 1.608045 -15.899116 -0.000001 0.000000 -0.000001 0.262715 5.795794 -59.065058 3.799368 5.480739 -69.440088 0.464399 2.287831 -22.945833 0.000001 -0.000003 -0.000000 -3.867963 4.759166 -68.248418 3.600509 5.402315 -67.343193 0.367666 2.044529 -20.387133 0.000001 -0.000001 -0.000003 -16.622901 17.883483 13.219222 -62.218024 52.447165 53.110277 -0.000011 108.127106 0.000016 -37.817371 -6.426630 -45.798925 5.005520 -6.963103 15.048898 8.540042 -17.142656 -22.625070 -7.600378 -40.277909 -42.787157 -0.000003 0.000001 0.000001 -0.774168 1.381155 11.461560 1.403510 -3.333931 45.651267 0.866299 -2.707233 35.482679 -0.000001 0.000000 -0.000001 3.841108 -7.069029 62.624693 6.259954 -4.373251 110.150877 0.248732 -1.503071 18.790265 -0.000000 -0.000001 0.000001 -2.687797 -3.904392 64.382504 5.313160 -4.610844 98.106255 1.448868 -3.377551 46.425578 0.000000 -0.000001 0.000001 -2.526581 -4.853550 72.167369 3.579197 -4.530991 76.602511 2.134436 -3.915972 57.172618 0.000001 -0.000000 0.000002 -20.646339 28.120842 24.930122 45.053844 -2.461579 -7.949392 -19.439352 4.036848 13.848322 7.768995 10.954427 39.413118 0.000000 -0.000000 -0.000000 -25.914074 -31.338988 -39.156761 36.381358 -1.976049 -4.494096 -5.747064 13.821990 9.306005 7.720779 -6.902272 -49.057195 -0.000001 -0.000002 0.000002 
-5.066091 20.442787 -14.798203 78.053086 7.987879 4.798509 9.004717 -5.267972 0.226586 -2.350447 -4.816675 2.514942 -1.915906 -4.949945 1.929304 -33.221794 -0.164273 12.120365 -1.286701 27.053186 1.848548 0.000003 -0.000001 0.000000 -22.397536 -44.254797 20.434143 -93.818891 -4.000854 -29.732428 -0.000044 -73.574859 -0.000027 -104.502290 22.119230 44.705986 -0.028114 6.388373 6.315956 21.919293 -2.367925 8.583938 -5.828989 -9.621316 6.384462 -0.000000 -0.000002 -0.000000 -0.559015 3.252623 -34.321851 3.202147 5.218981 -63.041396 0.557921 2.497063 -25.185698 0.000001 -0.000000 0.000001 0.624292 5.188166 -40.844145 2.872542 5.038487 -59.355457 0.165261 1.383103 -13.627441 0.000002 0.000000 0.000000 0.161909 5.621407 -57.294758 3.592930 5.399171 -67.262678 0.377427 2.070574 -20.658894 0.000002 0.000002 -0.000002 -3.300051 4.561920 -65.290475 3.712350 5.447443 -68.526216 0.479318 2.322733 -23.316650 -0.000000 -0.000001 -0.000001 -14.067926 15.970898 10.361708 -68.283792 52.826418 61.319492 0.000034 106.332487 -0.000025 -35.137806 -4.269148 -39.779421 3.563402 -8.142195 17.221367 1.849893 -16.042415 -24.525954 -9.883804 -34.808512 -46.941776 -0.000000 0.000001 -0.000003 -0.527360 0.443572 10.496941 1.815728 -3.691446 52.371538 1.033736 -2.927692 38.888273 0.000000 -0.000000 -0.000000 4.232431 -7.103040 68.041532 6.243723 -4.379153 109.937823 0.248733 -1.503072 18.790264 0.000001 -0.000000 -0.000001 -2.541662 -4.393183 68.107382 5.235863 -4.621149 97.145917 1.323441 -3.253847 44.257515 -0.000001 0.000000 -0.000000 -1.844276 -5.469823 76.153782 3.354672 -4.471730 73.742329 2.059866 -3.866984 56.074197 0.000001 -0.000001 -0.000000 -23.304763 25.192388 26.407231 51.822790 0.829195 -7.407862 -21.868396 -0.180724 6.054262 6.483263 9.943179 33.505162 0.000002 -0.000000 0.000001 -19.370632 -25.007291 -33.031918 39.465854 0.638662 -3.525752 -6.243292 11.549158 5.229528 32.922133 -20.484098 -31.319453 -0.000001 -0.000002 -0.000000 
